<?xml version="1.0" standalone="no"?><!DOCTYPE svg PUBLIC "-//W3C//DTD SVG 1.1//EN" "http://www.w3.org/Graphics/SVG/1.1/DTD/svg11.dtd"><svg t="1731650105465" class="icon" viewBox="0 0 1024 1024" version="1.1" xmlns="http://www.w3.org/2000/svg" p-id="15057" xmlns:xlink="http://www.w3.org/1999/xlink" width="200" height="200"><path d="M512 16C238.06 16 16 238.06 16 512s222.06 496 496 496 496-222.06 496-496S785.94 16 512 16z m-22.68 480.46c-5.78 9.64-16.2 15.54-27.44 15.54h-0.62c-8.48 0-16.62 3.38-22.62 9.38l-11.32 11.32c-6.24 6.24-6.24 16.38 0 22.62l11.32 11.32c6 6 9.38 14.14 9.38 22.62V608c0 17.68-14.32 32-32 32h-12.22c-12.12 0-23.2-6.84-28.62-17.7l-45.24-90.46c-4.88-9.76-17.9-11.88-25.62-4.16l-38.94 38.92c-6 6-14.14 9.38-22.62 9.38H117.62C114.24 555.1 112 533.84 112 512c0-220.56 179.44-400 400-400 43.02 0 84.4 7.02 123.26 19.64l-100.32 77.06c-10.22 6.82-9.26 22.12 1.72 27.62l21.66 10.82c10.84 5.42 17.68 16.5 17.68 28.62V432c0 8.84-7.16 16-16 16h-6.12c-6.06 0-11.6-3.42-14.3-8.84-3.12-6.24-11.92-6.58-15.52-0.6l-34.74 57.9zM832 716.86c0 8.48-3.38 16.62-9.38 22.62l-19.14 19.14c-6 6-14.14 9.38-22.62 9.38h-30.32c-8.48 0-16.62-3.38-22.62-9.38l-26.02-26.02a53.534 53.534 0 0 0-50.84-14.08l-42.54 10.64c-2.54 0.64-5.14 0.96-7.76 0.96h-20.68c-8.48 0-16.62-3.38-22.62-9.38l-23.82-23.82a16.016 16.016 0 0 1-4.68-11.32v-20.4c0-6.54 3.98-12.42 10.06-14.86l78.68-31.48c3.96-1.58 7.72-3.64 11.18-6.1l47.42-33.78a15.956 15.956 0 0 1 9.28-2.96h24.18c6.46 0 12.3 3.88 14.78 9.86l10.7 25.7a8 8 0 0 0 7.38 4.92h7.6c3.56 0 6.7-2.36 7.68-5.76l8.4-28.94c1-3.42 4.12-5.76 7.68-5.76h12.12c4.42 0 8 3.58 8 8v25.86c0 4.24 1.68 8.32 4.68 11.32l23.82 23.82c6 6 9.38 14.14 9.38 22.62v49.2z" fill="#1296db" p-id="15058"></path></svg>