<?xml version="1.0" standalone="no"?><!DOCTYPE svg PUBLIC "-//W3C//DTD SVG 1.1//EN" "http://www.w3.org/Graphics/SVG/1.1/DTD/svg11.dtd"><svg t="1731650802058" class="icon" viewBox="0 0 1024 1024" version="1.1" xmlns="http://www.w3.org/2000/svg" p-id="2314" xmlns:xlink="http://www.w3.org/1999/xlink" width="200" height="200"><path d="M970.92 853.08a72 72 0 0 0-104.8 98.56l2.08 2.36H972l2.08-2.36a72 72 0 0 0-3.16-98.56z" fill="#FFDD00" p-id="2315"></path><path d="M970.92 853.08a72 72 0 0 0-64.92-19.68 72 72 0 0 1 40 118.24l-2.08 2.36h28l2.08-2.36a72 72 0 0 0-3.08-98.56z" fill="#EFC803" p-id="2316"></path><path d="M186.92 69.08a72 72 0 0 0-104.8 98.56l2.08 2.36H188l2.08-2.36a72 72 0 0 0-3.16-98.56z" fill="#40BDFF" p-id="2317"></path><path d="M186.92 69.08A72 72 0 0 0 120 49.88a72 72 0 0 1 37.88 117.76l-2.08 2.36h32l2.08-2.36a72 72 0 0 0-2.96-98.56z" fill="#2197F7" p-id="2318"></path><path d="M325.64 504H392v-1.96a312.64 312.64 0 0 1 26.76-120.92l0.76-1.64-1.56-0.92a222.64 222.64 0 0 1-24.76-17.12l-1.2-1.08-1.28 1.2a205.36 205.36 0 0 0-65 140.36z" fill="#40BDFF" p-id="2319"></path><path d="M457.88 323.44l6.88-6.88-9.04 3.6-5.48 2.24-2 0.92-0.92 0.4q-3.76 1.68-7.4 3.52c-1.88 0.92-3.76 1.88-5.6 2.88l-1.8 1-0.96 0.52c-1.88 1.04-3.8 2.12-5.64 3.24l-2.32 1.44c-2.04 1.24-4 2.56-6 4l-1.72 1.16c-2.28 1.56-4.56 3.16-6.96 4.96l-0.6 0.44-1.08 0.84-2.84 2.2 2.08 1.6A208.24 208.24 0 0 0 425.2 364l1.76 1.08 1-1.8a184.96 184.96 0 0 1 29.92-39.84z" fill="#2197F7" p-id="2320"></path><path d="M652 663.64l1.28-1.2a205.36 205.36 0 0 0 65-140.36V520H652v1.96a312.64 312.64 0 0 1-26.76 120.92l-0.76 1.64 1.56 0.92a222.64 222.64 0 0 1 24.76 17.12zM426.96 658.8l-1.76 1.08a208.24 208.24 0 0 0-18.72 12.76l-2.08 1.6 2.84 2.2 1.08 0.84 0.76 0.56q3.32 2.48 6.76 4.84l1.72 1.16q2.96 2 6.04 4l2.32 1.44c1.84 1.12 3.76 2.2 5.64 3.24l0.96 0.52 1.8 1c1.84 1 3.72 1.96 5.6 2.88s4.92 2.4 7.4 3.52l0.92 0.44 2.04 0.92 5.48 2.24 9.04 3.6-6.88-6.88a184.96 184.96 0 0 1-29.92-40z" fill="#40BDFF" p-id="2321"></path><path d="M325.76 522.08a205.36 205.36 0 0 0 65 140.36l1.28 1.2 1.36-1.08a222.64 222.64 0 0 1 24.76-17.12l1.56-0.92-0.76-1.64A312.64 312.64 0 0 1 392 521.96V520H325.64z" fill="#2197F7" p-id="2322"></path><path d="M905.52 922.56a18.72 18.72 0 1 0-2.88 0zM865.8 964.96a71.36 71.36 0 0 0 76.4 0 31.76 31.76 0 0 0-31.48-26.4h-13.4a31.76 31.76 0 0 0-31.52 26.4z" fill="#EFFAFE" p-id="2323"></path><path d="M520 614.16h1.92a221 221 0 0 1 86.88 22l1.84 0.88 0.84-1.88a301.16 301.16 0 0 0 24.52-113.12V520h-116zM501.72 717.76l2.28 0.32v-88h-2.08a205.16 205.16 0 0 0-79.44 20l-1.92 0.92 1.04 1.84c21.08 37.8 49.52 60.72 80.12 64.92z" fill="#2197F7" p-id="2324"></path><path d="M520 504h116v-2.04a301.16 301.16 0 0 0-24.36-113.16l-0.84-1.88-1.84 0.88a221 221 0 0 1-86.88 22h-1.92z" fill="#40BDFF" p-id="2325"></path><path d="M522.28 306.24l-2.28-0.32v88h2.08a205.16 205.16 0 0 0 79.44-20l1.92-0.92-1.04-1.84c-21.08-37.8-49.52-60.72-80.12-64.92zM593.76 701.6l2-0.92 0.92-0.4q3.76-1.68 7.4-3.52c1.88-0.92 3.76-1.88 5.6-2.88l1.8-1 0.96-0.52c1.88-1.04 3.8-2.12 5.64-3.24l2.32-1.44c2.04-1.24 4-2.56 6-4l1.72-1.16c2.28-1.56 4.56-3.16 6.96-4.96l0.6-0.44 1.08-0.84 2.84-2.2-2.08-1.6a208.24 208.24 0 0 0-18.72-12.48l-1.76-1.08-1 1.8a184.96 184.96 0 0 1-29.92 40l-6.88 6.88 9.04-3.6z" fill="#2197F7" p-id="2326"></path><path d="M520 718.04l2.28-0.32c30.6-4 59.08-27.08 80-64.48l1.04-1.84-1.92-0.92a205.16 205.16 0 0 0-79.44-20h-2.08zM504 520H388v2.04a301.16 301.16 0 0 0 24.36 113.16l0.84 1.88 1.84-0.88a221 221 0 0 1 86.88-22h1.92z" fill="#40BDFF" p-id="2327"></path><path d="M504 409.84h-1.92a221 221 0 0 1-86.88-22l-1.84-0.88-0.84 1.88A301.16 301.16 0 0 0 388 501.96v2.04h116z" fill="#2197F7" p-id="2328"></path><path d="M617.04 365.2l1.76-1.08a208.24 208.24 0 0 0 18.72-12.76l2.08-1.6-2.84-2.2-1.08-0.84-0.76-0.56q-3.32-2.48-6.76-4.84l-1.72-1.16q-2.96-2-6.04-4l-2.32-1.44c-1.84-1.12-3.76-2.2-5.64-3.24l-0.96-0.52-1.8-1c-1.84-1-3.72-1.96-5.6-2.88s-4.92-2.4-7.4-3.52l-0.92-0.44-2.04-0.92-5.48-2.2-9.04-3.6 6.88 6.88a184.96 184.96 0 0 1 29.92 40zM504 305.96l-2.28 0.32c-30.6 4-59.08 27.08-80 64.52l-1.04 1.84 1.92 0.92a205.16 205.16 0 0 0 79.44 20h2.08z" fill="#40BDFF" p-id="2329"></path><path d="M81.8 180.96a71.44 71.44 0 0 0 76.4 0 31.76 31.76 0 0 0-31.48-26.4h-13.4a31.76 31.76 0 0 0-31.52 26.4z" fill="#EFFAFE" p-id="2330"></path><path d="M718.24 501.92a205.36 205.36 0 0 0-65-140.36l-1.28-1.2-1.36 1.08a222.64 222.64 0 0 1-24.76 17.12l-1.56 0.92 0.76 1.64a312.64 312.64 0 0 1 26.96 120.92v1.96h66.44z" fill="#2197F7" p-id="2331"></path><path d="M121.44 138.56a18.72 18.72 0 1 0-2.88 0z" fill="#EFFAFE" p-id="2332"></path><path d="M56.36 56.36a90 90 0 1 0 127.28 0 90.12 90.12 0 0 0-127.28 0zM84 180a29.84 29.84 0 0 1 29.2-23.44h13.4A29.84 29.84 0 0 1 156 180a69.6 69.6 0 0 1-72 0z m19.24-60a16.72 16.72 0 1 1 18.04 16.56h-2.72A16.68 16.68 0 0 1 103.28 120zM172.4 166.32a49.76 49.76 0 0 0-23.04-24.36 36.72 36.72 0 1 0-58.68 0 49.76 49.76 0 0 0-23.04 24.36 69.96 69.96 0 1 1 104.76 0zM967.64 967.64a90 90 0 1 0-127.28 0 90.12 90.12 0 0 0 127.28 0z m-116-17.32a69.96 69.96 0 1 1 104.76 0 49.76 49.76 0 0 0-23.04-24.36 36.72 36.72 0 1 0-58.68 0 49.76 49.76 0 0 0-23.08 24.36zM920.72 904a16.68 16.68 0 0 1-15.36 16.56h-2.72a16.68 16.68 0 1 1 18.04-16.56zM868 964a29.84 29.84 0 0 1 29.2-23.44h13.4A29.84 29.84 0 0 1 940 964a69.56 69.56 0 0 1-72 0zM130 512V280a10 10 0 0 0-20 0v232A402.44 402.44 0 0 0 512 914h208l-39.48 39.52a10 10 0 0 0 14.16 14.16l56.56-56.56a10 10 0 0 0 0-14.16l-56.56-56.56a10 10 0 0 0-14.16 14.16l39.48 39.44h-208A382.44 382.44 0 0 1 130 512z" fill="#263238" p-id="2333"></path><path d="M658.76 342.16c-1.16-1-2.32-1.92-3.48-2.88l-1.08-0.88q-3.52-2.88-7.16-5.64l-1.4-1.08q-3.44-2.56-6.96-4.96l-1.92-1.32c-2.16-1.44-4.36-2.84-6.56-4.2l-2.6-1.6c-1.96-1.16-4-2.28-5.92-3.4l-3.48-1.96-4.68-2.4a223.08 223.08 0 0 0-32-13.24l-0.92-0.32c-2.64-0.84-5.28-1.64-8-2.36l-2-0.56c-2.48-0.68-4.96-1.28-7.44-1.88l-2.8-0.64-6.96-1.44-3.6-0.64-6.44-1-4.56-0.6-5.68-0.64-5.88-0.52-4.48-0.32c-3.56 0-7.16-0.28-10.76-0.28s-7.2 0-10.76 0.28l-4.48 0.32-6.04 0.48-5.72 0.64-4.56 0.56-6.44 1.04-3.56 0.64q-3.52 0.68-7 1.44l-2.76 0.64c-2.52 0.6-5 1.2-7.48 1.88l-1.96 0.56c-2.68 0.76-5.36 1.52-8 2.4l-0.88 0.28a223.04 223.04 0 0 0-32 13.24l-4.68 2.4-3.48 1.96c-2 1.12-4 2.24-5.92 3.4l-2.6 1.6c-2.2 1.36-4.4 2.76-6.6 4.24l-1.92 1.32q-3.52 2.4-7 4.96l-1.4 1.04q-3.64 2.76-7.16 5.64l-1.08 0.88c-1.16 0.96-2.36 1.92-3.52 2.88a9.8 9.8 0 0 0-0.68 0.72 224 224 0 0 0 0 338.2 9.8 9.8 0 0 0 0.68 0.72c1.16 1 2.32 1.92 3.48 2.88l1.08 0.88q3.52 2.88 7.16 5.64l1.4 1.08q3.44 2.56 6.96 4.96l1.92 1.32c2.16 1.44 4.36 2.84 6.56 4.2l2.6 1.64c1.96 1.16 4 2.28 5.88 3.4l3.48 1.96 4.68 2.4a223.08 223.08 0 0 0 32 13.24l0.92 0.32c2.64 0.84 5.28 1.64 8 2.36l2 0.56c2.48 0.68 4.96 1.28 7.44 1.88l2.8 0.64 6.96 1.44 3.6 0.64 6.44 1 4.56 0.6 5.68 0.64 6.04 0.48 4.48 0.32c3.56 0 7.16 0.28 10.76 0.28s7.2 0 10.76-0.28l4.48-0.32 6.04-0.48 5.68-0.64 4.56-0.6 6.44-1 3.6-0.64 6.96-1.44 2.8-0.64c2.48-0.6 5-1.2 7.44-1.88l2-0.56c2.68-0.76 5.32-1.52 8-2.36l0.92-0.32a223.08 223.08 0 0 0 32-13.24l4.68-2.4 3.48-1.96c2-1.12 4-2.24 5.92-3.4l2.6-1.6c2.2-1.36 4.4-2.76 6.56-4.2l1.92-1.32q3.52-2.4 6.96-4.96l1.4-1.08q3.64-2.72 7.16-5.64l1.08-0.88c1.16-0.96 2.36-1.88 3.48-2.88a9.8 9.8 0 0 0 0.68-0.72 224 224 0 0 0 0-338.2 9.8 9.8 0 0 0-0.72-0.72z m-269.28 6.2l0.76-0.56q3.32-2.44 6.72-4.76l1.72-1.16q2.96-1.96 5.96-4l2.32-1.44c1.84-1.12 3.72-2.16 5.6-3.2l2.72-1.52c1.84-1 3.68-1.92 5.56-2.84s4.88-2.36 7.36-3.48l2.92-1.32 5.44-2.24a187.12 187.12 0 0 0-30.28 40.4 204.28 204.28 0 0 1-18.56-12.64zM372 363a224.4 224.4 0 0 0 24.96 17.28 314.52 314.52 0 0 0-26.96 121.72H307.76A204 204 0 0 1 372 363z m0 298a204 204 0 0 1-64.4-139h62.4a314.52 314.52 0 0 0 26.96 121.72 224.4 224.4 0 0 0-24.96 17.28z m58.92 38.76l-2.92-1.32q-3.72-1.68-7.36-3.48c-1.88-0.92-3.72-1.88-5.56-2.84l-2.72-1.52c-1.88-1.04-3.76-2.12-5.6-3.2l-2.32-1.44q-3-1.88-5.96-4l-1.72-1.16q-3.4-2.32-6.72-4.76l-0.76-0.56-1.8-1.44a204.28 204.28 0 0 1 18.56-12.64 187.12 187.12 0 0 0 30.28 40.4z m70.96 16c-30.88-4.24-58.56-28-78.68-63.52a204.28 204.28 0 0 1 78.68-20z m0-103.52a224.28 224.28 0 0 0-87.68 22.2 299.2 299.2 0 0 1-24-112.44h112z m0-110.24h-112a299.2 299.2 0 0 1 24-112.44 224.28 224.28 0 0 0 87.68 22.2z m0-110.28a204.28 204.28 0 0 1-78.68-20c20-35.68 47.76-59.28 78.68-63.52z m90.96-67.48l2.92 1.32q3.72 1.68 7.36 3.48c1.88 0.92 3.72 1.88 5.56 2.84l2.72 1.52c1.88 1.04 3.76 2.12 5.6 3.2l2.32 1.44q3 1.88 5.96 4l1.72 1.16q3.4 2.32 6.72 4.76l0.76 0.56 1.8 1.44a204.28 204.28 0 0 1-18.56 12.64 187.12 187.12 0 0 0-30.28-40.4z m-70.96-16c30.88 4.24 58.56 28 78.68 63.52a204.28 204.28 0 0 1-78.68 20z m0 103.52a224.28 224.28 0 0 0 87.68-22.2 299.2 299.2 0 0 1 24 112.44h-112z m0 110.24h112a299.2 299.2 0 0 1-24 112.44 224.28 224.28 0 0 0-87.68-22.2z m0 193.76v-83.48a204.28 204.28 0 0 1 78.68 20c-20 35.72-47.68 59.24-78.56 63.48z m112.52-40l-0.76 0.56q-3.32 2.44-6.72 4.76l-1.72 1.16q-2.96 1.96-5.96 4l-2.32 1.44c-1.84 1.12-3.72 2.16-5.6 3.2l-2.72 1.52c-1.84 1-3.68 1.92-5.56 2.84s-4.88 2.36-7.36 3.48l-2.92 1.32-5.44 2.24a187.12 187.12 0 0 0 30.28-40.4 204.28 204.28 0 0 1 18.56 12.64z m17.36-14.64a224.4 224.4 0 0 0-24.96-17.28 314.52 314.52 0 0 0 26.96-121.72h62.4A204 204 0 0 1 652 661z m64.4-159h-62.4a314.52 314.52 0 0 0-26.96-121.72 224.4 224.4 0 0 0 25.2-17.4 204 204 0 0 1 64.24 139z" fill="#263238" p-id="2334"></path><path d="M343.64 56.36a10 10 0 0 0-14.16 0L272.92 112.92a10 10 0 0 0 0 14.16l56.56 56.56a10 10 0 0 0 14.16-14.16L304 130h208a382.44 382.44 0 0 1 382 382v232a10 10 0 0 0 20 0v-232A402.44 402.44 0 0 0 512 110H304l39.48-39.48a10 10 0 0 0 0.16-14.16z" fill="#263238" p-id="2335"></path><path d="M758 341.96h-16v-16a4 4 0 0 0-8 0v16h-16a4 4 0 0 0 0 8h16v16a4 4 0 0 0 8 0v-16h16a4 4 0 0 0 0-8z" fill="#40BDFF" p-id="2336"></path><path d="M236 633.12h-16v-16a4 4 0 0 0-8 0v16h-16a4 4 0 0 0 0 8h16v16a4 4 0 0 0 8 0v-16h16a4 4 0 0 0 0-8z" fill="#FFDD00" p-id="2337"></path><path d="M780.52 76h-16v-16a4 4 0 0 0-8 0v16h-16a4 4 0 0 0 0 8h16v16a4 4 0 0 0 8 0v-16h16a4 4 0 0 0 0-8zM245.6 272h-16v-16a4 4 0 0 0-8 0v16h-16a4 4 0 0 0 0 8h16v16a4 4 0 0 0 8 0v-16h16a4 4 0 0 0 0-8z" fill="#40BDFF" p-id="2338"></path><path d="M154 854.56h-16v-16a4 4 0 0 0-8 0v16h-16a4 4 0 0 0 0 8h16v16a4 4 0 0 0 8 0v-16h16a4 4 0 0 0 0-8z" fill="#FFDD00" p-id="2339"></path><path d="M549.44 949.96h-16v-16a4 4 0 0 0-8 0v16h-16a4 4 0 0 0 0 8h16v16a4 4 0 0 0 8 0v-16h16a4 4 0 1 0 0-8z" fill="#40BDFF" p-id="2340"></path><path d="M928 216a24 24 0 1 1 24-24 24 24 0 0 1-24 24z m0-40a16 16 0 1 0 16 16 16 16 0 0 0-16-16zM460 92a24 24 0 1 1 24-24 24 24 0 0 1-24 24z m0-40a16 16 0 1 0 16 16 16 16 0 0 0-16-16z" fill="#FFDD00" p-id="2341"></path><path d="M810.04 732.52h-10.36l7.32-7.32a4 4 0 0 0-5.64-5.64l-7.32 7.32v-10.36a4 4 0 0 0-8 0v10.36l-7.32-7.32a4 4 0 0 0-5.64 5.64l7.32 7.32h-10.36a4 4 0 0 0 0 8h10.36l-7.32 7.48a4 4 0 0 0 5.64 5.64l7.32-7.32v10.36a4 4 0 0 0 8 0v-10.36l7.32 7.32a4 4 0 0 0 5.64-5.64l-7.32-7.32h10.36a4 4 0 0 0 0-8z" fill="#40BDFF" p-id="2342"></path></svg>